<?xml version="1.0" encoding="utf-8"?>
<!-- Generator: Adobe Illustrator 16.0.0, SVG Export Plug-In . SVG Version: 6.00 Build 0)  -->
<!DOCTYPE svg PUBLIC "-//W3C//DTD SVG 1.1//EN" "http://www.w3.org/Graphics/SVG/1.1/DTD/svg11.dtd">
<svg version="1.1" id="Calque_1" xmlns="http://www.w3.org/2000/svg" xmlns:xlink="http://www.w3.org/1999/xlink" x="0px" y="0px"
	 width="32px" height="32px" viewBox="0 0 32 32" enable-background="new 0 0 32 32" xml:space="preserve">
<path fill="#FFFFFF" d="M13.679,4.787v5.336c0,0.157-0.056,0.291-0.17,0.404c-0.112,0.114-0.248,0.171-0.403,0.171
	c-0.154,0-0.29-0.057-0.403-0.171c-0.115-0.113-0.169-0.247-0.169-0.404V4.787h-1.148v5.336c0,0.157-0.057,0.291-0.17,0.404
	c-0.114,0.114-0.249,0.171-0.402,0.171c-0.157,0-0.291-0.057-0.405-0.171c-0.113-0.113-0.169-0.247-0.169-0.404V4.787H9.09v7.327
	c0,0.365,0.105,0.697,0.318,0.997c0.212,0.296,0.488,0.508,0.829,0.627v12.69c0,0.311,0.113,0.579,0.34,0.807
	c0.228,0.228,0.497,0.341,0.807,0.341h1.148c0.31,0,0.579-0.113,0.806-0.341c0.228-0.228,0.34-0.496,0.34-0.807v-12.69
	c0.343-0.119,0.618-0.331,0.83-0.627c0.213-0.3,0.318-0.632,0.318-0.997V4.787H13.679z M21.431,4.787
	c-2.787,0-4.223,2.07-4.223,4.566v8.52h1.611v8.556c0,0.311,0.116,0.579,0.342,0.807c0.228,0.228,0.496,0.341,0.807,0.341h1.146
	c0.311,0,0.581-0.113,0.808-0.341s0.342-0.496,0.342-0.807V4.787H21.431z"/>
</svg>
