<?xml version="1.0" encoding="utf-8"?>
<!-- Generator: Adobe Illustrator 16.0.0, SVG Export Plug-In . SVG Version: 6.00 Build 0)  -->
<!DOCTYPE svg PUBLIC "-//W3C//DTD SVG 1.1//EN" "http://www.w3.org/Graphics/SVG/1.1/DTD/svg11.dtd">
<svg version="1.1" id="Calque_1" xmlns="http://www.w3.org/2000/svg" xmlns:xlink="http://www.w3.org/1999/xlink" x="0px" y="0px"
	 width="32px" height="32px" viewBox="0 0 32 32" enable-background="new 0 0 32 32" xml:space="preserve">
<g>
	<polygon fill="#FFFFFF" points="11,17.788 11,24.615 14.852,21.639 	"/>
	<path fill="#FFFFFF" d="M23.668,14.826l-7.366-4.057L11,16.071v0.322l4.638,4.638L23.668,14.826z M16.574,12.888
		c0.926,0,1.801,0.455,2.338,1.215l-0.805,0.569c-0.354-0.5-0.927-0.798-1.533-0.798c-1.037,0-1.881,0.844-1.881,1.881
		s0.844,1.88,1.881,1.88c0.418,0,0.819-0.143,1.16-0.413l0.613,0.771c-0.517,0.411-1.13,0.628-1.773,0.628
		c-1.581,0-2.867-1.286-2.867-2.867C13.707,14.174,14.993,12.888,16.574,12.888z"/>
	<polygon fill="#FFFFFF" points="15.403,10.274 11,7.85 11,14.677 	"/>
</g>
</svg>
