<?xml version="1.0" encoding="utf-8"?>
<!-- Generator: Adobe Illustrator 16.0.0, SVG Export Plug-In . SVG Version: 6.00 Build 0)  -->
<!DOCTYPE svg PUBLIC "-//W3C//DTD SVG 1.1//EN" "http://www.w3.org/Graphics/SVG/1.1/DTD/svg11.dtd">
<svg version="1.1" id="Calque_1" xmlns="http://www.w3.org/2000/svg" xmlns:xlink="http://www.w3.org/1999/xlink" x="0px" y="0px"
	 width="32px" height="32px" viewBox="0 0 32 32" enable-background="new 0 0 32 32" xml:space="preserve">
<path fill="#FFFFFF" d="M23,10v1h-1v-1h-1v3h-9v-3h-1v1h-1v-1H9v13h1v-1h1v1h1v-3h9v3h1v-1h1v1h1V10H23z M11,21h-1v-1h1V21z M11,19
	h-1v-1h1V19z M11,17h-1v-1h1V17z M11,15h-1v-1h1V15z M11,13h-1v-1h1V13z M21,19h-9v-5h9V19z M23,21h-1v-1h1V21z M23,19h-1v-1h1V19z
	 M23,17h-1v-1h1V17z M23,15h-1v-1h1V15z M23,13h-1v-1h1V13z"/>
</svg>
