<?xml version="1.0" encoding="utf-8"?>
<!-- Generator: Adobe Illustrator 16.0.0, SVG Export Plug-In . SVG Version: 6.00 Build 0)  -->
<!DOCTYPE svg PUBLIC "-//W3C//DTD SVG 1.1//EN" "http://www.w3.org/Graphics/SVG/1.1/DTD/svg11.dtd">
<svg version="1.1" id="Calque_1" xmlns="http://www.w3.org/2000/svg" xmlns:xlink="http://www.w3.org/1999/xlink" x="0px" y="0px"
	 width="32px" height="32px" viewBox="0 0 32 32" enable-background="new 0 0 32 32" xml:space="preserve">
<g>
	<g>
		<g>
			<path fill="#FFFFFF" d="M21.979,17.057v-0.375c-0.17,0.149-0.524,0.156-0.835,0.213c-0.312,0.062-0.594,0.171-0.594,0.537
				c0,0.375,0.289,0.468,0.615,0.468C21.95,17.899,21.979,17.277,21.979,17.057L21.979,17.057z M8.973,16.251h1.635
				c-0.093-0.51-0.312-0.779-0.8-0.779C9.17,15.472,8.987,15.967,8.973,16.251L8.973,16.251z M12.576,16.251h1.635
				c-0.093-0.51-0.312-0.779-0.8-0.779C12.773,15.472,12.591,15.967,12.576,16.251L12.576,16.251z M19.699,16.102h-0.982
				c-0.063-0.41-0.325-0.63-0.743-0.63c-0.644,0-0.856,0.652-0.856,1.189c0,0.523,0.205,1.154,0.834,1.154
				c0.468,0,0.736-0.298,0.801-0.744h0.854c0.172-0.495,0.68-0.638,1.185-0.708c0.614-0.093,1.188-0.07,1.188-0.48
				c0-0.432-0.299-0.495-0.652-0.495c-0.382,0-0.629,0.317-0.663,0.714H19.699L19.699,16.102z M29.895,16.887h-2.639
				c0.029,0.638,0.34,0.929,0.898,0.929c0.403,0,0.729-0.249,0.793-0.475h0.885c-0.283,0.863-0.885,1.231-1.713,1.231
				c-0.892,0-1.523-0.475-1.762-1.215c-0.034,0.915-0.852,1.215-1.668,1.215c-0.802,0-1.586-0.283-1.706-1.132v0.218
				c0,0.334,0.036,0.666,0.128,0.814h-1.02c-0.036-0.111-0.064-0.233-0.071-0.354c-0.318,0.332-0.786,0.453-1.23,0.453
				c-0.635,0-1.151-0.29-1.233-0.914c-0.279,0.596-0.853,0.914-1.598,0.914c-0.939,0-1.617-0.563-1.799-1.408v1.309h-1.005v-1.586
				h-2.579c0.028,0.638,0.339,0.929,0.898,0.929c0.404,0,0.729-0.249,0.793-0.475h0.884c-0.282,0.863-0.884,1.231-1.713,1.231
				c-1.069,0-1.761-0.683-1.857-1.686H8.973c0.028,0.638,0.34,0.929,0.898,0.929c0.403,0,0.729-0.249,0.793-0.475h0.883
				c-0.282,0.863-0.883,1.231-1.713,1.231c-1.153,0-1.868-0.793-1.868-1.925c0-1.098,0.758-1.933,1.868-1.933
				c1.039,0,1.631,0.728,1.757,1.622c0.128-0.939,0.844-1.622,1.847-1.622c0.955,0,1.531,0.614,1.716,1.408v-2.702h1.005v2.77
				c0.174-0.874,0.815-1.476,1.82-1.476c0.798,0,1.533,0.387,1.691,1.18c0.125-0.964,0.936-1.18,1.705-1.18
				c0.729,0,1.606,0.163,1.606,1.04v1.529h0.94c0.008,0.438,0.376,0.615,0.772,0.615c0.289,0,0.657-0.113,0.657-0.468
				c0-0.304-0.417-0.409-1.139-0.564c-0.582-0.129-1.162-0.333-1.162-0.978c0-0.935,0.809-1.175,1.594-1.175
				c0.799,0,1.535,0.271,1.613,1.168h-0.956c-0.027-0.39-0.325-0.495-0.685-0.495c-0.228,0-0.561,0.043-0.561,0.339
				c0,0.361,0.566,0.411,1.141,0.544c0.439,0.102,0.874,0.247,1.062,0.601c-0.008-0.073-0.011-0.148-0.011-0.224
				c0-1.098,0.758-1.933,1.868-1.933C29.365,14.715,29.967,15.762,29.895,16.887L29.895,16.887z M27.256,16.251h1.635
				c-0.093-0.51-0.311-0.779-0.8-0.779C27.455,15.472,27.271,15.967,27.256,16.251L27.256,16.251z M7.397,13.717v1.098h0.734v0.581
				H7.397v1.902c0,0.339,0.084,0.424,0.424,0.424c0.106,0,0.206-0.006,0.31-0.027v0.784c-0.169,0.03-0.387,0.036-0.586,0.036
				c-0.616,0-1.154-0.142-1.154-0.87v-2.249H4.993l0-0.469c-0.036-0.607-0.467-0.764-0.998-0.764c-0.354,0-0.765,0.148-0.765,0.573
				c0,0.39,0.241,0.438,1.507,0.765c0.368,0.092,1.501,0.325,1.501,1.471c0,0.928-0.73,1.621-2.102,1.621
				c-1.118,0-2.167-0.552-2.151-1.798h1.076c0,0.672,0.523,0.936,1.118,0.936c0.39,0,0.984-0.114,0.984-0.63
				c0-0.547-0.757-0.639-1.5-0.837c-0.75-0.197-1.507-0.488-1.507-1.437c0-1.031,0.977-1.528,1.89-1.528
				c1.019,0,1.959,0.43,2.021,1.516h0.326v-1.098H7.397L7.397,13.717z"/>
		</g>
		<g>
			<path fill="#FFFFFF" d="M29.388,14.624c0-0.282,0.229-0.491,0.501-0.491c0.268,0,0.498,0.209,0.498,0.491
				c0,0.286-0.23,0.494-0.498,0.494C29.617,15.118,29.388,14.91,29.388,14.624z M29.889,15.036c0.223,0,0.398-0.174,0.398-0.412
				c0-0.232-0.176-0.409-0.398-0.409c-0.227,0-0.401,0.177-0.401,0.409C29.487,14.862,29.662,15.036,29.889,15.036z M29.785,14.91
				h-0.088v-0.568h0.217c0.134,0,0.201,0.05,0.201,0.161c0,0.103-0.064,0.146-0.147,0.156l0.161,0.251h-0.096l-0.15-0.246h-0.098
				V14.91z M29.887,14.591c0.074,0,0.138-0.005,0.138-0.093c0-0.071-0.063-0.084-0.123-0.084h-0.116v0.177H29.887z"/>
		</g>
	</g>
</g>
</svg>
