<?xml version="1.0" encoding="utf-8"?>
<!-- Generator: Adobe Illustrator 16.0.0, SVG Export Plug-In . SVG Version: 6.00 Build 0)  -->
<!DOCTYPE svg PUBLIC "-//W3C//DTD SVG 1.1//EN" "http://www.w3.org/Graphics/SVG/1.1/DTD/svg11.dtd">
<svg version="1.1" id="Calque_1" xmlns="http://www.w3.org/2000/svg" xmlns:xlink="http://www.w3.org/1999/xlink" x="0px" y="0px"
	 width="32px" height="32px" viewBox="0 0 32 32" enable-background="new 0 0 32 32" xml:space="preserve">
<g>
	<path fill="#FFFFFF" d="M6.486,11.239h1.203l-2.132,8.775H4.366L6.486,11.239z"/>
	<path fill="#FFFFFF" d="M14.844,19.87h-2.2v-0.996c-0.328,0.409-0.659,0.701-0.993,0.875c-0.334,0.173-0.744,0.26-1.23,0.26
		c-0.648,0-1.157-0.193-1.525-0.581c-0.369-0.389-0.553-0.985-0.553-1.792v-3.913h2.367v3.381c0,0.386,0.072,0.659,0.214,0.821
		s0.343,0.243,0.602,0.243c0.282,0,0.512-0.107,0.692-0.324c0.179-0.216,0.269-0.604,0.269-1.163v-2.958h2.356V19.87z"/>
	<path fill="#FFFFFF" d="M19.115,11.384v2.339h1.297v1.725h-1.297v2.179c0,0.262,0.025,0.435,0.076,0.52
		c0.076,0.131,0.212,0.196,0.404,0.196c0.174,0,0.418-0.05,0.73-0.15l0.173,1.627c-0.583,0.127-1.126,0.19-1.632,0.19
		c-0.587,0-1.02-0.075-1.297-0.226s-0.483-0.378-0.617-0.685s-0.2-0.803-0.2-1.488v-2.163h-0.868v-1.725h0.868v-1.129L19.115,11.384
		z"/>
	<path fill="#FFFFFF" d="M21.35,11.384h6.883v1.592c-0.598,0.541-1.098,1.125-1.499,1.754c-0.486,0.765-0.87,1.615-1.151,2.553
		c-0.225,0.729-0.375,1.592-0.452,2.588h-2.351c0.186-1.386,0.477-2.547,0.875-3.484c0.396-0.938,1.025-1.941,1.887-3.011H21.35
		V11.384z"/>
</g>
</svg>
